<svg width="456" height="456" viewBox="-10 -55 456 456" fill="none" xmlns="http://www.w3.org/2000/svg">
<path d="M10.9777 163.917C12.4555 163.142 14.848 162.298 16.3258 161.875H16.2554C17.7332 161.523 20.8295 161.382 23.1517 161.593C25.4739 161.805 28.6405 162.509 30.1887 163.213C31.7368 163.917 34.1997 165.536 35.6775 166.874C37.2256 168.212 39.3367 171.169 40.4627 173.493C42.0812 176.873 42.5034 178.633 42.5034 182.294C42.5034 184.829 42.0812 188.279 41.4478 190.039C40.8849 191.8 39.0553 194.757 37.4368 196.658C35.7479 198.559 32.7923 200.883 30.8924 201.869C28.0072 203.347 26.3183 203.699 21.7443 203.699C17.0295 203.77 15.4814 203.488 12.2444 201.869C10.1333 200.883 7.10735 198.63 5.62959 196.94C4.08145 195.32 2.18147 192.504 1.4074 190.744C0.422219 188.561 0 186.026 0 182.646C0 179.267 0.422219 176.732 1.4074 174.549C2.18147 172.789 4.08145 169.972 5.62959 168.282C7.10735 166.593 9.5703 164.621 10.9777 163.917Z" fill="#2563eb"/>
<path d="M277.961 4.22466C281.479 3.02768 286.968 1.61945 290.276 1.05617C293.583 0.492878 299.564 0.0704111 303.646 0C307.727 0 313.849 0.422466 317.368 0.985755C320.886 1.54904 325.883 2.60521 328.627 3.37973C331.301 4.15425 336.086 5.91453 339.183 7.32275C342.279 8.73097 347.838 11.8995 351.497 14.2934C355.508 16.9691 360.575 21.2641 364.164 24.9959C367.471 28.4461 371.623 33.3044 373.312 35.8392C375.001 38.374 377.745 43.3028 379.364 46.753C381.053 50.2031 383.093 55.7656 383.938 59.0749C384.993 63.2996 385.556 67.8763 385.838 74.9174C386.049 82.1697 385.838 86.324 384.993 90.7599C384.36 94.0692 383.023 99.2796 382.038 102.378C381.053 105.476 379.082 110.193 377.745 112.939C376.338 115.685 373.945 119.769 372.397 122.093C370.849 124.416 366.979 128.923 363.882 132.162C360.716 135.4 355.931 139.766 353.257 141.808C350.512 143.85 345.938 146.878 343.053 148.427C340.168 149.976 335.383 152.088 332.497 153.074C329.612 154.059 324.968 155.397 322.294 155.961C319.549 156.594 313.849 157.228 309.627 157.439C304.913 157.721 299.283 157.51 295.201 156.946C291.542 156.453 285.913 155.327 282.676 154.411C279.509 153.496 275.076 151.877 272.824 150.891C270.642 149.905 265.787 147.089 262.128 144.695C258.468 142.23 252.768 137.583 249.461 134.274C246.154 131.035 241.72 125.825 239.609 122.727C237.498 119.699 234.613 114.629 233.206 111.531C231.728 108.433 229.758 103.223 228.843 99.9133C227.858 96.604 226.732 91.464 226.309 88.5067C225.887 85.479 225.535 80.2686 225.535 76.8889C225.535 73.4388 226.028 67.8059 226.591 64.3557C227.154 60.9056 228.561 55.1319 229.758 51.6817C231.024 48.2316 232.995 43.5845 234.191 41.4721C235.387 39.3598 237.639 35.6984 239.187 33.3749C240.735 31.0513 244.113 26.9674 246.717 24.2214C249.32 21.4754 253.894 17.5324 256.92 15.3496C260.017 13.0965 264.52 10.2096 267.054 8.8718C269.587 7.46357 274.442 5.42165 277.961 4.22466Z" fill="#2563eb"/>
<path d="M155.517 23.7989C157.84 22.6724 161.921 21.2641 164.665 20.7009C167.973 19.9967 171.632 19.7855 175.925 20.0672C179.865 20.3488 184.087 21.1233 187.184 22.1795C189.858 23.0948 193.799 24.9255 195.91 26.1929C198.021 27.3899 201.61 30.4176 204.002 32.7411C206.395 35.1351 209.491 39.0781 210.969 41.5425C212.447 44.0069 214.347 48.2316 215.191 50.9776C216.458 54.9206 216.739 57.5963 216.739 64.3557C216.739 71.256 216.458 73.65 215.191 77.3818C214.276 79.9166 212.447 83.8596 211.11 86.1832C209.702 88.5067 206.887 92.0977 204.917 94.1396C202.876 96.1815 199.358 99.0684 197.036 100.617C194.713 102.096 190.421 104.138 187.536 105.124C184.65 106.109 179.725 107.095 176.628 107.377C172.476 107.729 169.38 107.518 165.017 106.673C161.71 105.969 156.714 104.349 153.899 103.011C150.31 101.322 147.214 99.0684 143.132 95.1958C138.558 90.8303 136.869 88.5771 134.688 84.0708C133.21 80.9727 131.451 76.5368 130.888 74.2133C130.325 71.8897 129.832 67.1018 129.832 63.6516C129.832 60.2015 130.325 55.4135 130.888 53.09C131.521 50.7664 132.929 46.9642 134.055 44.6406C135.18 42.3171 137.573 38.5853 139.332 36.4025C141.092 34.1494 144.469 30.84 146.862 29.0798C149.325 27.2491 153.195 24.8551 155.517 23.7989Z" fill="#2563eb"/>
<path d="M67.555 79.1421C69.455 78.3675 72.8328 77.3818 74.9439 76.9593C77.055 76.4664 81.2772 76.1144 84.2327 76.044C87.2586 75.9735 92.0437 76.4664 94.7882 77.1001C97.603 77.7338 102.458 79.4237 105.555 80.9023C108.651 82.3105 113.225 85.0566 115.688 86.9577C118.221 88.8588 121.951 92.4497 123.992 94.9845C126.032 97.5193 128.847 101.744 130.184 104.49C131.521 107.236 133.351 112.094 134.125 115.404C135.392 120.333 135.603 122.727 135.251 128.782C135.04 133.499 134.336 138.006 133.351 141.104C132.506 143.85 131.169 147.3 130.395 148.849C129.621 150.398 127.299 153.848 125.258 156.594C123.218 159.34 119.558 163.213 117.095 165.255C114.632 167.297 110.058 170.184 106.962 171.733C103.866 173.282 99.2918 174.972 96.7585 175.605C94.2252 176.169 88.8771 176.661 84.7957 176.661C80.5031 176.661 75.6476 176.239 73.1846 175.605C70.8624 175.042 66.4291 173.282 63.3329 171.733C60.2366 170.254 55.6625 167.297 53.1996 165.255C50.7367 163.213 47.2885 159.622 45.5293 157.298C43.8404 154.975 41.1664 150.539 39.6886 147.441C38.1405 144.343 36.4516 139.414 35.8182 136.527C34.9738 132.725 34.7627 129.204 34.9738 123.853C35.2553 118.361 35.8182 114.981 37.2256 110.827C38.2812 107.729 40.4627 103.011 42.0812 100.265C43.6293 97.5193 47.0774 93.2947 49.6107 90.7599C52.1441 88.2251 56.3662 84.8453 59.1107 83.2963C61.7847 81.7473 65.5847 79.8462 67.555 79.1421Z" fill="#2563eb"/>
<path d="M397.941 105.617C399.701 104.631 402.515 103.434 404.275 102.941C406.034 102.519 408.567 102.096 409.904 102.096C411.241 102.026 414.267 102.519 416.589 103.152C418.912 103.716 422.501 105.405 424.612 106.814C426.723 108.222 429.186 110.405 430.03 111.531C430.945 112.658 432.493 115.545 433.619 117.868C435.237 121.459 435.589 123.008 435.589 128.078C435.589 133.429 435.308 134.626 433.408 138.639C432 141.526 429.889 144.343 427.778 146.244C425.878 147.934 422.923 149.905 421.163 150.75C418.982 151.806 416.167 152.37 412.015 152.581C407.019 152.792 405.33 152.581 401.812 151.243C399.138 150.187 396.182 148.286 393.719 145.962C391.116 143.568 389.145 140.893 387.808 137.865C386.049 134.063 385.697 132.443 385.697 127.726C385.767 123.642 386.119 121.037 387.245 118.22C388.09 116.108 390.13 112.799 391.749 110.897C393.438 108.996 396.182 106.673 397.941 105.617Z" fill="#2563eb"/>
<path d="M171.351 121.882C174.658 120.262 179.725 118.291 182.61 117.516C186.832 116.39 189.506 116.178 196.332 116.319C203.439 116.53 205.761 116.953 210.758 118.643C214.065 119.769 219.132 122.163 222.017 123.994C224.902 125.754 229.124 129.064 231.446 131.387C233.698 133.64 236.443 136.738 237.498 138.287C238.554 139.836 240.594 143.287 241.932 146.033C243.269 148.779 244.957 153.003 245.661 155.538C246.459 158.589 246.857 162.697 246.857 167.86C246.857 173.07 246.435 177.084 245.661 180.182C244.957 182.717 243.269 187.082 241.861 189.969C240.383 192.786 237.85 196.869 236.091 199.052C234.332 201.235 230.813 204.755 228.28 206.868C225.746 209.05 221.313 212.008 218.428 213.416C215.543 214.895 210.687 216.725 207.591 217.5C203.932 218.415 199.78 218.908 195.628 218.908C192.11 218.908 187.043 218.415 184.369 217.852C181.625 217.289 176.417 215.317 172.758 213.486C167.199 210.74 165.088 209.191 160.091 204.192C156.784 200.883 153.054 196.376 151.858 194.264C150.591 192.152 148.691 188.35 147.706 185.815C146.651 183.28 145.384 179.055 144.821 176.309C144.117 173 143.906 168.987 144.117 163.987C144.329 158.284 144.892 155.256 146.44 150.609C147.566 147.3 149.958 142.442 151.788 139.696C153.547 136.95 157.347 132.514 160.162 129.768C163.891 126.247 167.128 123.994 171.351 121.882Z" fill="#2563eb"/>
<path d="M354.312 158.495C356.845 157.298 360.645 155.82 362.757 155.256C364.868 154.693 369.019 154.2 371.905 154.2C374.79 154.13 378.942 154.411 381.053 154.834C383.164 155.256 387.316 156.735 390.201 158.214C393.579 159.904 396.956 162.298 399.701 165.044C402.093 167.508 405.049 171.451 406.527 174.197C407.934 176.943 409.623 181.168 410.186 183.702C410.819 186.237 411.312 190.18 411.312 192.504C411.312 194.827 410.819 198.63 410.256 200.953C409.623 203.277 408.286 207.079 407.16 209.403C406.034 211.726 403.219 215.669 400.897 218.204C398.575 220.739 394.704 223.978 392.242 225.456C389.779 226.935 385.697 228.766 383.164 229.54C380.068 230.455 376.69 230.948 372.608 230.948C369.16 230.948 365.008 230.455 362.757 229.751C360.645 229.118 356.986 227.639 354.734 226.442C352.412 225.175 348.612 222.288 346.29 219.894C343.897 217.5 340.871 213.486 339.394 210.74C337.986 208.065 336.368 203.981 335.734 201.657C335.101 199.334 334.609 194.898 334.609 191.8C334.609 188.702 335.101 184.407 335.664 182.294C336.227 180.182 337.705 176.38 338.972 173.845C340.309 171.099 342.912 167.578 345.516 165.044C348.049 162.438 351.497 159.904 354.312 158.495Z" fill="#2563eb"/>
<path d="M270.22 172.296C272.191 171.24 275.498 169.902 277.609 169.339C279.72 168.775 284.013 168.282 287.109 168.282C290.205 168.212 294.639 168.705 296.961 169.339C299.283 169.902 303.083 171.451 305.335 172.648C307.657 173.915 311.527 176.873 313.99 179.337C317.227 182.506 319.198 185.322 321.238 189.547C323.279 193.771 324.264 196.94 324.827 201.305C325.531 206.375 325.461 208.135 324.546 212.923C323.912 216.021 322.435 220.457 321.309 222.781C320.112 225.104 317.861 228.625 316.242 230.526C314.624 232.497 311.879 235.173 310.05 236.511C308.29 237.919 305.405 239.679 303.646 240.524C301.887 241.369 298.579 242.566 296.257 243.2C293.935 243.763 290.276 244.256 288.164 244.256C286.053 244.256 282.324 243.763 279.861 243.2C277.468 242.637 273.528 241.158 271.065 239.961C268.461 238.623 264.872 235.877 262.057 233.061C259.172 230.103 256.639 226.724 255.231 223.837C253.965 221.302 252.487 217.5 251.924 215.387C251.361 213.275 250.868 208.839 250.868 205.53C250.868 202.221 251.361 197.644 251.994 195.32C252.557 192.997 254.105 189.195 255.302 186.941C256.568 184.547 259.524 180.956 262.128 178.492C264.661 176.098 268.32 173.352 270.22 172.296Z" fill="#2563eb"/>
<path d="M95.3511 190.532C97.4622 189.476 100.77 188.138 102.74 187.646C104.64 187.082 108.651 186.589 111.536 186.589C114.421 186.519 118.644 187.012 120.825 187.575C123.077 188.138 126.877 189.617 129.269 190.884C131.732 192.081 135.251 194.546 137.151 196.306C138.98 198.066 141.584 200.953 142.851 202.713C144.117 204.474 146.017 208.065 147.073 210.811C148.34 214.05 149.114 217.641 149.325 221.372C149.606 225.386 149.395 228.343 148.551 231.582C147.917 234.117 146.58 237.919 145.525 240.031C144.399 242.355 141.725 245.875 138.699 248.833C135.955 251.579 132.084 254.606 130.184 255.663C128.214 256.719 124.766 258.057 122.444 258.62C120.121 259.254 115.969 259.746 113.295 259.746C110.551 259.746 106.47 259.254 104.147 258.62C101.825 258.057 98.0252 256.578 95.703 255.311C93.3808 254.114 89.5808 251.156 87.1882 248.833C84.6549 246.368 81.9809 242.777 80.6438 240.243C79.4475 237.778 77.9698 233.976 77.4068 231.793C76.8439 229.54 76.3513 225.315 76.3513 222.429C76.3513 219.542 76.8439 215.247 77.4772 212.923C78.0402 210.6 79.5883 206.797 80.7846 204.544C82.0512 202.291 84.9364 198.63 87.2586 196.447C89.5808 194.264 93.24 191.589 95.3511 190.532Z" fill="#2563eb"/>
<path d="M34.9034 223.344C36.2405 222.147 38.7034 220.457 40.4627 219.683C42.5034 218.767 45.1774 218.204 47.8515 218.204C51.1589 218.204 52.9885 218.626 56.2959 220.246C58.6884 221.372 61.5032 223.485 62.7699 225.034C63.9662 226.512 65.5143 229.118 66.0773 230.878C66.7106 232.638 67.2032 235.807 67.2032 237.919C67.2032 240.735 66.7106 242.848 65.3032 245.594C64.1773 247.706 62.0662 250.523 60.5181 251.79C58.9699 253.057 56.2959 254.606 54.5366 255.17C52.7774 255.803 49.7515 256.226 47.8515 256.226C45.2478 256.226 43.1367 255.663 39.8293 253.973C37.296 252.705 34.5516 250.663 33.7072 249.537C32.7923 248.41 31.4553 246.016 30.6812 244.256C29.7664 242.214 29.2035 239.609 29.2035 236.863C29.2035 233.835 29.6961 231.582 30.8924 229.118C31.8072 227.217 33.6368 224.611 34.9034 223.344Z" fill="#2563eb"/>
<path d="M170.999 232.779C172.899 231.582 175.784 230.174 177.332 229.681C178.951 229.118 182.328 228.906 185.425 229.047C188.732 229.188 192.25 229.892 194.924 230.948C197.739 232.004 200.554 233.906 203.228 236.511C205.973 239.046 208.154 241.932 209.561 244.96C211.461 248.903 211.743 250.311 211.743 255.17C211.743 258.69 211.321 262.14 210.547 264.323C209.843 266.295 208.224 269.322 206.887 271.223C205.55 273.054 202.947 275.659 201.047 276.997C199.217 278.335 195.699 280.095 193.165 280.94C189.576 282.137 187.465 282.419 183.313 282.137C179.584 281.926 176.839 281.292 173.954 279.954C171.773 278.898 168.325 276.575 166.354 274.744C164.314 272.773 161.921 269.604 160.725 267.14C159.388 264.464 158.543 261.296 158.262 258.338C157.91 255.17 158.191 252.424 158.965 249.396C159.599 246.932 160.936 243.622 161.921 242.003C162.977 240.313 164.595 238.06 165.651 237.004C166.636 235.877 169.028 234.046 170.999 232.779Z" fill="#2563eb"/>
<path d="M328.275 242.003C329.612 240.947 332.005 239.609 333.553 239.046C335.101 238.482 338.409 237.989 340.942 237.989C344.109 237.989 346.501 238.412 348.683 239.398C350.442 240.172 353.045 241.862 354.594 243.059C356.071 244.326 358.182 247.143 359.379 249.537C360.997 252.846 361.49 254.747 361.49 258.338C361.56 261.648 361.138 263.901 360.012 266.435C359.168 268.407 357.268 271.153 355.86 272.632C354.453 274.11 351.99 276.011 350.442 276.786C348.894 277.56 346.009 278.476 344.109 278.757C342.138 279.109 338.901 279.039 336.72 278.617C334.609 278.265 332.005 277.49 330.879 276.927C329.823 276.363 327.853 274.885 326.446 273.688C325.038 272.42 323.068 269.815 322.083 267.844C320.957 265.591 320.183 262.704 320.042 259.746C319.761 256.226 320.042 254.325 321.168 251.297C322.012 249.185 323.349 246.65 324.264 245.664C325.109 244.678 326.938 243.059 328.275 242.003Z" fill="#2563eb"/>
<path d="M229.546 243.411C230.602 242.355 232.924 240.876 234.683 240.031C237.287 238.834 238.765 238.623 242.776 238.905C246.928 239.186 248.265 239.609 251.22 241.651C253.613 243.27 255.372 245.242 256.78 247.847C258.468 250.945 258.82 252.494 258.82 256.226C258.891 259.465 258.468 261.648 257.413 263.619C256.639 265.168 254.739 267.492 253.261 268.829C251.713 270.167 249.391 271.716 248.054 272.28C246.717 272.843 243.691 273.336 241.369 273.336C239.046 273.336 236.02 272.843 234.683 272.28C233.346 271.716 231.095 270.308 229.758 269.111C228.421 267.985 226.521 265.309 225.606 263.197C224.269 260.099 223.987 258.549 224.269 255.17C224.48 252.846 225.254 249.678 226.098 248.129C226.872 246.58 228.421 244.467 229.546 243.411Z" fill="#2563eb"/>
<path d="M125.681 273.547C126.806 271.928 128.777 270.379 130.606 269.534C132.295 268.829 134.758 268.196 135.955 268.196C137.221 268.196 139.473 268.689 140.88 269.322C142.358 269.886 144.188 270.942 144.891 271.576C145.595 272.209 146.791 274.04 147.495 275.589C148.199 277.138 148.832 279.673 148.832 281.222C148.832 282.771 148.199 285.376 147.425 287.066C146.44 289.037 145.032 290.586 142.992 291.783C141.021 292.98 138.98 293.544 136.658 293.544C134.829 293.544 132.295 293.121 131.029 292.628C129.832 292.065 127.721 290.516 126.455 289.108C125.258 287.629 123.992 285.658 123.781 284.602C123.499 283.475 123.429 281.151 123.569 279.391C123.781 277.49 124.555 275.166 125.681 273.547Z" fill="#2563eb"/>
<path d="M73.255 274.674C75.155 273.054 77.9698 271.223 79.5179 270.66C81.0661 270.167 84.2327 269.674 86.5549 269.674C88.8771 269.604 92.1845 270.026 93.9437 270.66C95.703 271.223 98.6585 273.054 100.558 274.674C102.458 276.363 104.781 279.321 105.836 281.222C107.314 284.179 107.666 285.658 107.666 290.375C107.666 295.093 107.314 296.571 105.766 299.529C104.781 301.5 102.881 304.035 101.544 305.232C100.277 306.499 97.8141 308.189 96.0548 309.105C93.4511 310.513 91.8326 310.794 86.9068 310.794C81.5586 310.794 80.5031 310.583 77.1253 308.682C74.8735 307.485 72.1291 305.091 70.5809 303.049C69.0328 301.078 67.3439 297.839 66.7106 295.656C66.0773 293.333 65.7254 290.375 66.0069 288.263C66.1477 286.362 67.1328 283.193 68.0476 281.222C69.0328 279.321 71.355 276.363 73.255 274.674Z" fill="#2563eb"/>
<path d="M41.7293 320.3C42.8552 318.962 45.4589 316.991 47.57 315.864C49.8922 314.738 52.4959 313.963 54.1848 313.963C55.7329 313.963 58.2662 314.315 59.8144 314.737C61.5736 315.23 63.8958 316.779 65.8662 318.821C67.9069 320.793 69.455 323.116 69.9476 324.877C70.3698 326.426 70.7217 328.961 70.7217 330.51C70.7217 332.059 70.018 334.734 69.2439 336.495C68.4699 338.255 67.1328 340.438 66.2884 341.282C65.4439 342.198 63.4736 343.606 61.9255 344.451C60.0255 345.437 57.7736 345.93 54.8885 346C51.6515 346 49.7515 345.578 47.1478 344.24C44.6848 342.972 42.9256 341.353 41.3071 338.959C40.0404 336.917 38.8442 334.101 38.5627 332.27C38.3516 330.51 38.4923 327.693 38.9849 325.933C39.4775 324.173 40.6738 321.638 41.7293 320.3Z" fill="#2563eb"/>
</svg>
